<svg width="40" height="16" viewBox="0 0 40 16" fill="none" xmlns="http://www.w3.org/2000/svg">
<path fill-rule="evenodd" clip-rule="evenodd" d="M25.8067 3.0266C25.5467 2.7666 25.5467 2.3466 25.8067 2.0866C26.0667 1.8266 26.4934 1.8266 26.7534 2.0866L37.6267 12.9733C37.8867 13.2333 37.8867 13.6533 37.6267 13.9133C37.3667 14.1733 36.9467 14.1733 36.6867 13.9133L34.8734 12.0999C33.9801 12.4466 33.0134 12.6466 32.0001 12.6466C28.6667 12.6466 25.8201 10.5733 24.6667 7.6466C25.1801 6.33327 26.0401 5.19993 27.1201 4.33993L25.8067 3.0266ZM35.3334 7.64662C35.3334 5.80662 33.8401 4.31329 32.0001 4.31329C31.6601 4.31329 31.3334 4.37995 31.0201 4.47329L29.5734 3.02662C30.3401 2.77995 31.1534 2.64662 32.0001 2.64662C35.3334 2.64662 38.1801 4.71995 39.3334 7.63995C38.8734 8.81329 38.1401 9.83995 37.2134 10.66L35.1734 8.61995C35.2667 8.31329 35.3334 7.98662 35.3334 7.64662ZM32.0001 10.9799C30.1601 10.9799 28.6667 9.48658 28.6667 7.64658C28.6667 7.13325 28.7867 6.64658 28.9934 6.21992L30.0401 7.26658C30.0201 7.38658 30.0001 7.51325 30.0001 7.64658C30.0001 8.75325 30.8934 9.64658 32.0001 9.64658C32.1334 9.64658 32.2534 9.62658 32.3801 9.59992L33.4267 10.6466C32.9934 10.8599 32.5134 10.9799 32.0001 10.9799ZM33.9801 7.42661C33.8801 6.49328 33.1467 5.76661 32.2201 5.66661L33.9801 7.42661Z" fill="#9C9C9C"/>
</svg>
