<svg width="24" height="24" viewBox="0 0 24 24" fill="none" xmlns="http://www.w3.org/2000/svg">
<path fill-rule="evenodd" clip-rule="evenodd" d="M15.5 4H18C18.55 4 19 4.45 19 5C19 5.55 18.55 6 18 6H6C5.45 6 5 5.55 5 5C5 4.45 5.45 4 6 4H8.5L9.21 3.29C9.39 3.11 9.65 3 9.91 3H14.09C14.35 3 14.61 3.11 14.79 3.29L15.5 4ZM7.99992 21C6.89992 21 5.99992 20.1 5.99992 19V9.00004C5.99992 7.90004 6.89992 7.00004 7.99992 7.00004H15.9999C17.0999 7.00004 17.9999 7.90004 17.9999 9.00004V19C17.9999 20.1 17.0999 21 15.9999 21H7.99992Z" fill="#E4163A"/>
</svg>
