<svg width="46" height="78" viewBox="0 0 46 78" fill="none" xmlns="http://www.w3.org/2000/svg">
<path fill-rule="evenodd" clip-rule="evenodd" d="M13.9999 3.00977H31.9999C33.0999 3.00977 33.9999 3.90977 33.9999 5.00977V18.9898C33.9999 20.0898 33.0999 20.9898 31.9999 20.9898H13.9799C12.8899 20.9898 11.9999 20.0998 11.9999 19.0098V15.9998C11.9999 15.4498 12.4499 14.9998 12.9999 14.9998C13.5499 14.9998 13.9999 15.4498 13.9999 15.9998V18.0198C13.9999 18.5698 14.4499 19.0198 14.9999 19.0198H30.9999C31.5499 19.0198 31.9999 18.5698 31.9999 18.0198V5.98977C31.9999 5.43977 31.5499 4.98977 30.9999 4.98977H14.9999C14.4499 4.98977 13.9999 5.43977 13.9999 5.98977V7.99977C13.9999 8.54977 13.5499 8.99977 12.9999 8.99977C12.4499 8.99977 11.9999 8.54977 11.9999 7.99977V5.00977C11.9999 3.90977 12.8999 3.00977 13.9999 3.00977ZM25.6399 12.3598L22.8499 15.1498C22.5399 15.4598 21.9999 15.2398 21.9999 14.7898V12.9998H12.9999C12.4499 12.9998 11.9999 12.5498 11.9999 11.9998C11.9999 11.4498 12.4499 10.9998 12.9999 10.9998H21.9999V9.20981C21.9999 8.75981 22.5399 8.53981 22.8499 8.85981L25.6399 11.6498C25.8399 11.8498 25.8399 12.1598 25.6399 12.3598Z" fill="#FF768E"/>
<path d="M1.344 39.224C1.552 39.536 1.816 39.768 2.136 39.92C2.464 40.064 2.8 40.136 3.144 40.136C3.336 40.136 3.532 40.108 3.732 40.052C3.932 39.988 4.112 39.896 4.272 39.776C4.44 39.656 4.576 39.508 4.68 39.332C4.784 39.156 4.836 38.952 4.836 38.72C4.836 38.392 4.732 38.144 4.524 37.976C4.316 37.8 4.056 37.656 3.744 37.544C3.44 37.424 3.104 37.312 2.736 37.208C2.376 37.096 2.04 36.944 1.728 36.752C1.424 36.56 1.168 36.304 0.96 35.984C0.752 35.656 0.648 35.216 0.648 34.664C0.648 34.416 0.7 34.152 0.804 33.872C0.916 33.592 1.088 33.336 1.32 33.104C1.552 32.872 1.848 32.68 2.208 32.528C2.576 32.368 3.016 32.288 3.528 32.288C3.992 32.288 4.436 32.352 4.86 32.48C5.284 32.608 5.656 32.868 5.976 33.26L5.04 34.112C4.896 33.888 4.692 33.708 4.428 33.572C4.164 33.436 3.864 33.368 3.528 33.368C3.208 33.368 2.94 33.412 2.724 33.5C2.516 33.58 2.348 33.688 2.22 33.824C2.092 33.952 2 34.092 1.944 34.244C1.896 34.396 1.872 34.536 1.872 34.664C1.872 35.024 1.976 35.3 2.184 35.492C2.392 35.684 2.648 35.84 2.952 35.96C3.264 36.08 3.6 36.188 3.96 36.284C4.328 36.38 4.664 36.516 4.968 36.692C5.28 36.86 5.54 37.092 5.748 37.388C5.956 37.676 6.06 38.076 6.06 38.588C6.06 38.996 5.98 39.364 5.82 39.692C5.668 40.02 5.46 40.296 5.196 40.52C4.932 40.744 4.62 40.916 4.26 41.036C3.9 41.156 3.516 41.216 3.108 41.216C2.564 41.216 2.048 41.12 1.56 40.928C1.072 40.736 0.684 40.44 0.396 40.04L1.344 39.224ZM7.56797 35.312H8.64797V41H7.56797V35.312ZM7.31597 33.272C7.31597 33.056 7.39197 32.872 7.54397 32.72C7.70397 32.56 7.89197 32.48 8.10797 32.48C8.32397 32.48 8.50797 32.56 8.65997 32.72C8.81997 32.872 8.89997 33.056 8.89997 33.272C8.89997 33.488 8.81997 33.676 8.65997 33.836C8.50797 33.988 8.32397 34.064 8.10797 34.064C7.89197 34.064 7.70397 33.988 7.54397 33.836C7.39197 33.676 7.31597 33.488 7.31597 33.272ZM16.0668 40.952C16.0668 41.384 15.9908 41.776 15.8388 42.128C15.6948 42.488 15.4868 42.796 15.2148 43.052C14.9428 43.316 14.6148 43.52 14.2308 43.664C13.8468 43.808 13.4228 43.88 12.9588 43.88C12.4148 43.88 11.9148 43.804 11.4588 43.652C11.0108 43.5 10.5828 43.236 10.1748 42.86L10.9068 41.948C11.1868 42.252 11.4908 42.48 11.8188 42.632C12.1468 42.792 12.5188 42.872 12.9348 42.872C13.3348 42.872 13.6668 42.812 13.9308 42.692C14.1948 42.58 14.4028 42.432 14.5548 42.248C14.7148 42.064 14.8268 41.852 14.8908 41.612C14.9548 41.38 14.9868 41.144 14.9868 40.904V40.064H14.9508C14.7428 40.408 14.4588 40.664 14.0988 40.832C13.7468 40.992 13.3748 41.072 12.9828 41.072C12.5668 41.072 12.1788 41 11.8188 40.856C11.4668 40.704 11.1628 40.5 10.9068 40.244C10.6508 39.98 10.4508 39.672 10.3068 39.32C10.1628 38.96 10.0908 38.572 10.0908 38.156C10.0908 37.74 10.1588 37.352 10.2948 36.992C10.4308 36.624 10.6228 36.304 10.8708 36.032C11.1268 35.76 11.4308 35.548 11.7828 35.396C12.1428 35.244 12.5428 35.168 12.9828 35.168C13.3668 35.168 13.7388 35.252 14.0988 35.42C14.4668 35.588 14.7548 35.824 14.9628 36.128H14.9868V35.312H16.0668V40.952ZM13.1148 36.176C12.8268 36.176 12.5668 36.228 12.3348 36.332C12.1028 36.428 11.9068 36.564 11.7468 36.74C11.5868 36.908 11.4628 37.116 11.3748 37.364C11.2868 37.604 11.2428 37.868 11.2428 38.156C11.2428 38.732 11.4108 39.196 11.7468 39.548C12.0828 39.892 12.5388 40.064 13.1148 40.064C13.6908 40.064 14.1468 39.892 14.4828 39.548C14.8188 39.196 14.9868 38.732 14.9868 38.156C14.9868 37.868 14.9428 37.604 14.8548 37.364C14.7668 37.116 14.6428 36.908 14.4828 36.74C14.3228 36.564 14.1268 36.428 13.8948 36.332C13.6628 36.228 13.4028 36.176 13.1148 36.176ZM17.7027 35.312H18.7827V36.188H18.8067C18.9427 35.884 19.1787 35.64 19.5147 35.456C19.8507 35.264 20.2387 35.168 20.6787 35.168C20.9507 35.168 21.2107 35.212 21.4587 35.3C21.7147 35.38 21.9347 35.508 22.1187 35.684C22.3107 35.86 22.4627 36.088 22.5747 36.368C22.6867 36.64 22.7427 36.964 22.7427 37.34V41H21.6627V37.64C21.6627 37.376 21.6267 37.152 21.5547 36.968C21.4827 36.776 21.3867 36.624 21.2667 36.512C21.1467 36.392 21.0067 36.308 20.8467 36.26C20.6947 36.204 20.5347 36.176 20.3667 36.176C20.1427 36.176 19.9347 36.212 19.7427 36.284C19.5507 36.356 19.3827 36.472 19.2387 36.632C19.0947 36.784 18.9827 36.98 18.9027 37.22C18.8227 37.46 18.7827 37.744 18.7827 38.072V41H17.7027V35.312ZM28.5865 38.156C28.5865 38.444 28.6305 38.712 28.7185 38.96C28.8065 39.2 28.9305 39.408 29.0905 39.584C29.2505 39.752 29.4465 39.888 29.6785 39.992C29.9105 40.088 30.1705 40.136 30.4585 40.136C30.7465 40.136 31.0065 40.088 31.2385 39.992C31.4705 39.888 31.6665 39.752 31.8265 39.584C31.9865 39.408 32.1105 39.2 32.1985 38.96C32.2865 38.712 32.3305 38.444 32.3305 38.156C32.3305 37.868 32.2865 37.604 32.1985 37.364C32.1105 37.116 31.9865 36.908 31.8265 36.74C31.6665 36.564 31.4705 36.428 31.2385 36.332C31.0065 36.228 30.7465 36.176 30.4585 36.176C30.1705 36.176 29.9105 36.228 29.6785 36.332C29.4465 36.428 29.2505 36.564 29.0905 36.74C28.9305 36.908 28.8065 37.116 28.7185 37.364C28.6305 37.604 28.5865 37.868 28.5865 38.156ZM27.4345 38.156C27.4345 37.74 27.5105 37.352 27.6625 36.992C27.8225 36.632 28.0385 36.316 28.3105 36.044C28.5825 35.772 28.9025 35.56 29.2705 35.408C29.6385 35.248 30.0345 35.168 30.4585 35.168C30.8825 35.168 31.2785 35.248 31.6465 35.408C32.0145 35.56 32.3345 35.772 32.6065 36.044C32.8785 36.316 33.0905 36.632 33.2425 36.992C33.4025 37.352 33.4825 37.74 33.4825 38.156C33.4825 38.572 33.4025 38.964 33.2425 39.332C33.0905 39.692 32.8785 40.008 32.6065 40.28C32.3345 40.544 32.0145 40.756 31.6465 40.916C31.2785 41.068 30.8825 41.144 30.4585 41.144C30.0345 41.144 29.6385 41.068 29.2705 40.916C28.9025 40.756 28.5825 40.544 28.3105 40.28C28.0385 40.008 27.8225 39.692 27.6625 39.332C27.5105 38.964 27.4345 38.572 27.4345 38.156ZM39.8755 41H38.7955V40.124H38.7715C38.6355 40.428 38.3995 40.676 38.0635 40.868C37.7275 41.052 37.3395 41.144 36.8995 41.144C36.6195 41.144 36.3555 41.1 36.1075 41.012C35.8595 40.932 35.6395 40.804 35.4475 40.628C35.2635 40.452 35.1155 40.228 35.0035 39.956C34.8915 39.676 34.8355 39.348 34.8355 38.972V35.312H35.9155V38.672C35.9155 38.936 35.9515 39.164 36.0235 39.356C36.0955 39.54 36.1915 39.692 36.3115 39.812C36.4315 39.924 36.5675 40.008 36.7195 40.064C36.8795 40.112 37.0435 40.136 37.2115 40.136C37.4355 40.136 37.6435 40.1 37.8355 40.028C38.0275 39.956 38.1955 39.844 38.3395 39.692C38.4835 39.532 38.5955 39.332 38.6755 39.092C38.7555 38.852 38.7955 38.568 38.7955 38.24V35.312H39.8755V41ZM44.5515 36.248H43.0035V38.828C43.0035 38.988 43.0075 39.148 43.0155 39.308C43.0235 39.46 43.0515 39.6 43.0995 39.728C43.1555 39.848 43.2355 39.948 43.3395 40.028C43.4515 40.1 43.6115 40.136 43.8195 40.136C43.9475 40.136 44.0795 40.124 44.2155 40.1C44.3515 40.076 44.4755 40.032 44.5875 39.968V40.952C44.4595 41.024 44.2915 41.072 44.0835 41.096C43.8835 41.128 43.7275 41.144 43.6155 41.144C43.1995 41.144 42.8755 41.088 42.6435 40.976C42.4195 40.856 42.2515 40.704 42.1395 40.52C42.0355 40.336 41.9715 40.132 41.9475 39.908C41.9315 39.676 41.9235 39.444 41.9235 39.212V36.248H40.6755V35.312H41.9235V33.716H43.0035V35.312H44.5515V36.248Z" fill="#FF768E"/>
</svg>
